<svg width="26" height="26" viewBox="0 0 26 26" fill="none" xmlns="http://www.w3.org/2000/svg">
<path d="M15.9227 6.16428C15.4223 6.07195 14.9628 6.39093 14.8675 6.87884C14.7722 7.36676 15.0926 7.84313 15.5793 7.93862C17.0449 8.22402 18.1765 9.35724 18.4634 10.8262V10.8273C18.545 11.2501 18.9177 11.5576 19.3469 11.5576C19.4045 11.5576 19.462 11.5523 19.5206 11.5418C20.0074 11.4443 20.3278 10.9689 20.2325 10.48C19.8043 8.28593 18.1137 6.59134 15.9227 6.16428" fill="#0C3A63"/>
<path d="M15.8571 2.50833C15.6226 2.47475 15.387 2.544 15.1997 2.693C15.007 2.8441 14.8867 3.06235 14.8605 3.30683C14.805 3.80104 15.162 4.24803 15.6561 4.30364C19.0635 4.68348 21.712 7.33501 22.0951 10.7494C22.1464 11.2069 22.5306 11.5521 22.9891 11.5521C23.0236 11.5521 23.0571 11.55 23.0917 11.5458C23.3314 11.5195 23.545 11.401 23.6957 11.2121C23.8454 11.0232 23.9135 10.7882 23.8862 10.5479C23.4089 6.28783 20.1082 2.98155 15.8571 2.50833" fill="#0C3A63"/>
<path fill-rule="evenodd" clip-rule="evenodd" d="M12.363 14.0211C16.556 18.2084 17.5073 13.3641 20.177 16.0291C22.7509 18.5994 24.2302 19.1144 20.9691 22.371C20.5607 22.6989 17.9654 26.644 8.84466 17.5357C-0.277184 8.42625 3.6699 5.83112 3.99826 5.4232C7.26718 2.15759 7.77383 3.6439 10.3477 6.21424C13.0174 8.88037 8.16989 9.83368 12.363 14.0211Z" fill="#0C3A63"/>
</svg>
