<svg width="26" height="26" viewBox="0 0 26 26" fill="none" xmlns="http://www.w3.org/2000/svg">
<path fill-rule="evenodd" clip-rule="evenodd" d="M2.86937 13.016C2.86937 7.48472 7.29465 2.50024 13.4018 2.50024C19.3722 2.50024 23.8921 7.39008 23.8921 12.9845C23.8921 19.4727 18.5944 23.5002 13.3807 23.5002C11.6569 23.5002 9.7438 23.0375 8.20914 22.1332C7.67306 21.8072 7.22107 21.5653 6.64295 21.7546L4.51965 22.3856C3.98357 22.5538 3.50005 22.1332 3.65772 21.5653L4.36198 19.2098C4.47761 18.8838 4.45659 18.5368 4.2884 18.2634C3.38443 16.6019 2.86937 14.7827 2.86937 13.016ZM12.0142 13.0159C12.0142 13.7625 12.6134 14.3619 13.3597 14.3725C14.106 14.3725 14.7051 13.7625 14.7051 13.0264C14.7051 12.2798 14.106 11.6804 13.3597 11.6804C12.6239 11.6699 12.0142 12.2798 12.0142 13.0159ZM16.86 13.0264C16.86 13.7625 17.4591 14.3724 18.2054 14.3724C18.9517 14.3724 19.5509 13.7625 19.5509 13.0264C19.5509 12.2798 18.9517 11.6804 18.2054 11.6804C17.4591 11.6804 16.86 12.2798 16.86 13.0264ZM8.51396 14.3724C7.77817 14.3724 7.16851 13.7625 7.16851 13.0264C7.16851 12.2798 7.76765 11.6804 8.51396 11.6804C9.26027 11.6804 9.85942 12.2798 9.85942 13.0264C9.85942 13.7625 9.26027 14.3619 8.51396 14.3724Z" fill="#0C3A63"/>
</svg>
