<svg width="26" height="26" viewBox="0 0 26 26" fill="none" xmlns="http://www.w3.org/2000/svg">
<path fill-rule="evenodd" clip-rule="evenodd" d="M18.5727 3.5498C19.9823 3.5498 21.3382 4.1063 22.3358 5.10485C23.3344 6.1013 23.8925 7.4453 23.8925 8.8523V17.1473C23.8925 20.0768 21.5064 22.4498 18.5727 22.4498H8.18853C5.25481 22.4498 2.86978 20.0768 2.86978 17.1473V8.8523C2.86978 5.9228 5.2443 3.5498 8.18853 3.5498H18.5727ZM20.2451 10.4168L20.3292 10.3328C20.5804 10.0283 20.5804 9.58731 20.3176 9.28281C20.1715 9.12636 19.9707 9.03081 19.7615 9.00981C19.5408 8.99826 19.3306 9.07281 19.1719 9.21981L14.4323 12.9998C13.8226 13.5049 12.9491 13.5049 12.33 12.9998L7.5999 9.21981C7.273 8.97831 6.82101 9.00981 6.54876 9.29331C6.26496 9.57681 6.23342 10.0283 6.47413 10.3433L6.61183 10.4798L11.3945 14.2073C11.9831 14.6693 12.6969 14.9213 13.4442 14.9213C14.1895 14.9213 14.9158 14.6693 15.5034 14.2073L20.2451 10.4168Z" fill="#0C3A63"/>
</svg>
